<svg width="52" height="39" viewBox="0 0 52 39" fill="none" xmlns="http://www.w3.org/2000/svg">
<path d="M51 1H1V31H51V1Z" stroke="#FCFEFE" stroke-width="2" stroke-linecap="round" stroke-linejoin="round"/>
<path d="M48.9168 31.2083H3.0835V34.3333H48.9168V31.2083Z" stroke="#FCFEFE" stroke-width="2" stroke-linecap="round" stroke-linejoin="round"/>
<path d="M46.8332 34.3333H5.1665V37.4583H46.8332V34.3333Z" stroke="#FCFEFE" stroke-width="2" stroke-linecap="round" stroke-linejoin="round"/>
<path d="M25.7487 27.2886C30.1886 27.2886 33.7879 22.3365 33.7879 16.2277C33.7879 10.1189 30.1886 5.16675 25.7487 5.16675C21.3088 5.16675 17.7095 10.1189 17.7095 16.2277C17.7095 22.3365 21.3088 27.2886 25.7487 27.2886Z" stroke="#FCFEFE" stroke-width="2" stroke-linecap="round" stroke-linejoin="round"/>
<path fill-rule="evenodd" clip-rule="evenodd" d="M9.98454 27.2886H42.0158C42.0158 24.2342 44.4059 21.7582 47.3543 21.7582V10.6972C44.4059 10.6972 42.0158 8.22114 42.0158 5.16675H9.98454C9.98454 8.22114 7.59439 10.6972 4.646 10.6972V21.7582C7.59439 21.7582 9.98454 24.2342 9.98454 27.2886Z" stroke="#FCFEFE" stroke-width="2" stroke-linecap="round" stroke-linejoin="round"/>
<path d="M12.1826 17.8077C13.0151 17.8077 13.69 17.1003 13.69 16.2276C13.69 15.3549 13.0151 14.6475 12.1826 14.6475C11.3502 14.6475 10.6753 15.3549 10.6753 16.2276C10.6753 17.1003 11.3502 17.8077 12.1826 17.8077Z" stroke="#FCFEFE" stroke-width="2" stroke-linecap="round" stroke-linejoin="round"/>
<path d="M38.8125 17.8077C39.645 17.8077 40.3199 17.1003 40.3199 16.2276C40.3199 15.3549 39.645 14.6475 38.8125 14.6475C37.98 14.6475 37.3052 15.3549 37.3052 16.2276C37.3052 17.1003 37.98 17.8077 38.8125 17.8077Z" stroke="#FCFEFE" stroke-width="2" stroke-linecap="round" stroke-linejoin="round"/>
</svg>
